# xmcd
#
# Track frame offsets:
#	150
#	14151
#	28393
#	41247
#	54729
#	68852
#	82040
#	95092
#	107560
#	120363
#	135383
#	148573
#	163058
#	177439
#	191688
#	204418
#	215931
#	228090
#	240959
#	255011
#	268754
#	280782
#	296360
#
# Disc length: 4128 seconds
# Revision: 0
# Processed by: cddbd v1.5.2PL0 Copyright (c) Steve Scherf et al.
# Submitted via: dBpowerAMP V12.0
#
DISCID=56101e17
DTITLE=Various Artist - Times Ain't Like They Used to Be, Vol. 6: Early American Rural Music
DYEAR=2002
DGENRE=Country
TTITLE0=Birkhead and Lane - Robinson County
TTITLE1=Floyd County Ramblers - Aunt Dinah's Quilting Party
TTITLE2=The Mississippi Moaner - It's Cold in China
TTITLE3=Parker and Dodd - Sail Away Lady
TTITLE4=Uncle Dave Macon and His Fruit Jar Drinkers - I'm Goin' Away in the Morn
TTITLE5=Tenderfoot Edwards - Seven Sister Blues
TTITLE6=Virginia Mountain Boomers - Cousin Sally Brown
TTITLE7=The Girls of the Golden West - Whoopee-Ti-Yi-Yo Git Along Little Doggies
TTITLE8=Skip James - Cherry Ball Blues
TTITLE9=Roy Harvey and Jess Johnston - Milwaukee Blues
TTITLE10=Weems String Band - Davy
TTITLE11=Eli Framer - God Didn't Make Me No Monkey Man
TTITLE12=Eck Robertson - Sally Gooden
TTITLE13=Jess Johnston and Byrd Moore - My Trouble Blues
TTITLE14=Charley Patton - Prayer of Death - Part 2
TTITLE15=Red Headed Fiddlers - Cheat 'Em
TTITLE16=Dewey and Gassie Bassett - Jesus Paved the Way
TTITLE17=Louie Lasky - Caroline
TTITLE18=The Swamp Rooters - Swamp Cat Rag
TTITLE19=Reaves White County Ramblers - Ten Cent Piece
TTITLE20=Blind Joe Reynolds - Ninety Nine Blues
TTITLE21=Jess Hillard and His West Virginia Hillbillies - Rolling River
TTITLE22=Turney Brothers - At the Cross
EXTD=
EXTT0=
EXTT1=
EXTT2=
EXTT3=
EXTT4=
EXTT5=
EXTT6=
EXTT7=
EXTT8=
EXTT9=
EXTT10=
EXTT11=
EXTT12=
EXTT13=
EXTT14=
EXTT15=
EXTT16=
EXTT17=
EXTT18=
EXTT19=
EXTT20=
EXTT21=
EXTT22=
PLAYORDER=
